inDegrees=no
num_controls=7
num_derivatives=13
num_iterations=108
num_multipliers=7
num_parameters=0
num_slacks=7
num_states=26
objective=0.516225
objective_accelerations=0.040493
objective_balance=0.002197
objective_effort=0.044437
objective_height=0.417520
objective_ligament=0.011578
solver_duration=1435.121495
status=Solve_Succeeded
success=true
DataType=double
version=3
OpenSimVersion=4.5
endheader
time	/jointset/ground_pelvis/pelvis_tilt/value	/jointset/ground_pelvis/pelvis_tx/value	/jointset/ground_pelvis/pelvis_ty/value	/jointset/hip_l/hip_flexion_l/value	/jointset/hip_l/hip_adduction_l/value	/jointset/hip_l/hip_rotation_l/value	/jointset/back/lumbar_extension/value	/jointset/patellofemoral_l/patellar_flexion_l/value	/jointset/knee_l/knee_flexion_l/value	/jointset/knee_l/knee_adduction_l/value	/jointset/knee_l/knee_rotation_l/value	/jointset/ankle_l/ankle_angle_l/value	/jointset/subtalar_l/subtalar_angle_l/value	/jointset/ground_pelvis/pelvis_tilt/speed	/jointset/ground_pelvis/pelvis_tx/speed	/jointset/ground_pelvis/pelvis_ty/speed	/jointset/hip_l/hip_flexion_l/speed	/jointset/hip_l/hip_adduction_l/speed	/jointset/hip_l/hip_rotation_l/speed	/jointset/back/lumbar_extension/speed	/jointset/patellofemoral_l/patellar_flexion_l/speed	/jointset/knee_l/knee_flexion_l/speed	/jointset/knee_l/knee_adduction_l/speed	/jointset/knee_l/knee_rotation_l/speed	/jointset/ankle_l/ankle_angle_l/speed	/jointset/subtalar_l/subtalar_angle_l/speed	/forceset/tau_hip_flexion_l	/forceset/tau_hip_adduction_l	/forceset/tau_hip_rotation_l	/forceset/tau_knee_flexion_l	/forceset/tau_ankle_angle_l	/forceset/tau_subtalar_angle_l	/forceset/tau_lumbar_extension	lambda_cid13_p0	lambda_cid13_p1	lambda_cid13_p2	lambda_cid13_p3	lambda_cid13_p4	lambda_cid13_p5	lambda_cid14_p0	/jointset/ground_pelvis/pelvis_tilt/accel	/jointset/ground_pelvis/pelvis_tx/accel	/jointset/ground_pelvis/pelvis_ty/accel	/jointset/hip_l/hip_flexion_l/accel	/jointset/hip_l/hip_adduction_l/accel	/jointset/hip_l/hip_rotation_l/accel	/jointset/back/lumbar_extension/accel	/jointset/patellofemoral_l/patellar_flexion_l/accel	/jointset/knee_l/knee_flexion_l/accel	/jointset/knee_l/knee_adduction_l/accel	/jointset/knee_l/knee_rotation_l/accel	/jointset/ankle_l/ankle_angle_l/accel	/jointset/subtalar_l/subtalar_angle_l/accel	gamma_cid13_p0	gamma_cid13_p1	gamma_cid13_p2	gamma_cid13_p3	gamma_cid13_p4	gamma_cid13_p5	gamma_cid14_p0
0	-0.03679307525882263	0.05666449777801976	0.9203421227552184	0.3085816938045678	-0.2956315704381745	-0.3014148908655003	-0.3879492264334186	0.2499269421185249	0.2499269421184919	-0.1745326550888231	-0.1743439298532211	-0.0008036623358878681	0.000444363312384769	0	0	0	0	0	0	0	0	0	0	0	0	0	0.06510101646672538	-0.02916852595699368	-0.01809032146489026	-0.226624820695891	0.1603356440029934	-0.02033500450588475	0.006655161053118848	7.262614219371268	4.644747866047716	2.134953445458961	22.16798559334613	-627.3044325632409	-65.46408217239981	-23.19054649318459	-1.358394701337587	-2.233773414779833	-0.8670136395791326	8.968206614366032	-0.5970361145291685	2.576766935198147	-7.088781584064581	7.699764216066868	7.699764216066859	1.237787057441175	-0.1944964385620216	0.5172553324518246	-0.4715811008801654	2.84779969321747e-08	3.475612201212085e-08	2.242831015917903e-08	-4.676764928476121e-08	2.010892010200849e-07	3.428591579020109e-08	-4.379585668575247e-09
0.01	-0.03685727417707783	0.05655604948732448	0.9202999332724762	0.3090170268163659	-0.2956613713579069	-0.3012841376118351	-0.3882987253991074	0.2503036940734189	0.250303694073402	-0.1744737052829099	-0.1743491673135764	-0.0007767953790444702	0.0004211599536138141	-0.01277439187962803	-0.02138433071543397	-0.008380544813149706	0.08639068492064661	-0.005904587493873403	0.02616545828169199	-0.06908237320208625	0.07496221117465583	0.07496221117465593	0.0117580197184494	-0.0008749182013908259	0.005620131644392464	-0.004498179092789814	0.06031475621825523	-0.03854006207317233	-0.01803396746543445	-0.2278860761440095	0.164393039790027	-0.01071268236112892	0.01288370628525394	8.808623981172648	0.3319060419463584	2.666248335275234	17.56934937062286	-631.4852576637244	-74.02064542621335	-23.19503786535365	-1.227159143403324	-2.044973141943085	-0.814931924079716	8.373109664913128	-0.5788381365210084	2.638653822305162	-6.695352196551937	7.336223473712299	7.336223473712236	1.140024248859957	-0.008099866315291138	0.621407384951072	-0.4175712883896312	-3.068944832775154e-09	9.35713028136311e-08	6.761877310888545e-08	-1.334803235858817e-09	4.799312893866514e-08	2.557602134086812e-09	-8.312354801898274e-10
0.02	-0.03704725655657991	0.05624291584106905	0.9201756669372236	0.310295988724156	-0.2957485517665179	-0.3008912860658203	-0.3893145254984752	0.2514184229211842	0.251418422921184	-0.1742981323158174	-0.1743579760269959	-0.0006863240448539074	0.000357247808932652	-0.02515669224425455	-0.0409370711120316	-0.01641537050203993	0.168725779201237	-0.01147589777593343	0.05241965846940472	-0.1332602267349096	0.1475953785712149	0.1475953785712153	0.02332463222942253	-0.000714250618294816	0.01272087546950495	-0.008141757182034429	0.05552849596982797	-0.04791159818936268	-0.01797761346608777	-0.229147331592069	0.1684504355770819	-0.001090360216376312	0.01911225151741004	10.41399813043148	-3.989466915973181	3.196774805681787	12.91797051296499	-634.7522238161009	-82.50148710400104	-23.20798922073562	-1.279976398336438	-1.867455351013293	-0.7978698147272461	8.157088486354862	-0.5303806721664704	2.594515316402255	-6.107877650211529	7.233955460447679	7.233955460447713	1.199505615946025	0.01262071833523555	0.8133777685950492	-0.3006609001713719	-3.461588659772501e-08	1.523864836151413e-07	1.128092360585919e-07	4.409804281304358e-08	-1.051029431427546e-07	-2.917071152202746e-08	2.717114708195592e-09
0.03	-0.03735894116570633	0.05574093111203655	0.9199722947167444	0.3123809933140293	-0.2958903015669581	-0.3002384441703137	-0.3909522922222473	0.2532483148024507	0.2532483148024313	-0.1740087232111598	-0.1743633278349333	-0.0005209690528675175	0.0002594462874763329	-0.03707616001438312	-0.05940198461625049	-0.02424610801246289	0.247862808990697	-0.01687570856662267	0.07793112501844082	-0.1939704060592204	0.2180253543425928	0.2180253543425962	0.03441820182306446	-0.0004496919209296852	0.02024311463002404	-0.01145506773903883	0.04810254240288162	-0.04053352495961685	-0.01686429188687297	-0.2207552503574715	0.158993511764322	-0.00272361349586376	0.02499866156342408	7.277334857457439	-2.843256468366902	3.142332182771374	14.66132242144014	-635.638445746551	-79.17672311828842	-23.22861527677005	-1.132324316969863	-1.827316837191387	-0.7737525211850355	7.730155238311464	-0.5450646799532961	2.496812579356631	-6.004181278166058	6.893871577640269	6.893871577640627	1.043471079094723	0.01935113597206994	0.7055977153467388	-0.3521813086058148	-5.354805049590623e-08	7.470367053519992e-08	1.811489087317976e-07	5.045993240459257e-08	-1.791193667412844e-07	-7.985784835094251e-08	-1.396569569815997e-08
0.04	-0.03778669892267855	0.05505603575054679	0.9196909997607644	0.315244997204391	-0.2960861061547896	-0.2993370175582712	-0.3931874793801921	0.2557717770298371	0.2557717770298371	-0.1736125407209518	-0.1743688385178154	-0.0002836015241628989	0.000127408625421725	-0.04837132180913674	-0.07751919760348268	-0.0319999176021598	0.3245256393029444	-0.02228685525463629	0.1021366017755689	-0.25274431356843	0.2863094478002746	0.2863094478002799	0.04467930933755909	-0.0007460256021678869	0.02712338281319386	-0.01498898530168278	0.04067658883587525	-0.03315545172989647	-0.01575097030745874	-0.2123631691229403	0.1495365879515422	-0.004356866775386699	0.03088507160941465	4.195587201586507	-1.703454548067514	3.085248368572554	16.34629073490985	-635.6915566505032	-75.77986037673612	-23.2564635563628	-1.155115203260631	-1.797915247616659	-0.7824842305820477	7.662248590912419	-0.5326478516313041	2.333317358020619	-5.720623287190818	6.804778997708623	6.804778997708433	1.033013200116701	-0.09955775738551878	0.6849835731244441	-0.3447823012994997	-7.222011588137059e-08	-5.793534171163213e-09	2.499658846982714e-07	5.601623526506213e-08	-2.515052821236721e-07	-1.309358887504308e-07	-3.106564343636587e-08
0.05	-0.0383248663911051	0.05419203785242243	0.9193324060695875	0.3188644544351998	-0.2963352000808406	-0.2981988416070784	-0.3960002021826325	0.258968300877914	0.2589683008779115	-0.1731160443608007	-0.1743787745676736	2.046744869399918e-05	-3.979741444585455e-05	-0.05919179411752517	-0.09518848487744834	-0.03971601520885121	0.3990295242074308	-0.0274487856847255	0.1254321224245733	-0.3094517709549786	0.3527058454169251	0.352705845416922	0.05464997630804758	-0.001165425011956207	0.0336867091415842	-0.01836749203712045	0.0344021209177429	-0.0316083644204973	-0.01491672183098506	-0.2073025018990956	0.1435780575149454	-0.001958187350974572	0.03616006829593055	2.390423456830022	-2.455451391351851	3.235202661283889	16.64019257121653	-636.0175726165207	-76.50075628821013	-23.29094996264891	-1.034957538847241	-1.737639649448232	-0.7658025980825767	7.294009657010361	-0.4955196310548717	2.317658483781375	-5.593535568380472	6.513655035637809	6.513655035636602	0.9836160625812291	-0.001721904419901902	0.641449656673684	-0.3217026451875861	-7.682946612345017e-08	2.633323764300425e-08	2.503731836120341e-07	6.993162519793726e-08	-2.890288317093336e-07	-1.252539988471796e-07	-2.620255475791784e-08
